<?xml version="1.0" standalone="no"?>
<!DOCTYPE svg PUBLIC "-//W3C//DTD SVG 20010904//EN"
 "http://www.w3.org/TR/2001/REC-SVG-20010904/DTD/svg10.dtd">
<svg version="1.0" xmlns="http://www.w3.org/2000/svg"
 width="126.000000pt" height="126.000000pt" viewBox="0 0 126.000000 126.000000"
 preserveAspectRatio="xMidYMid meet">
<metadata>
Created by potrace 1.11, written by Peter Selinger 2001-2013
</metadata>
<g transform="translate(0.000000,126.000000) scale(0.100000,-0.100000)"
fill="#000000" stroke="none">
<path d="M286 1241 c-16 -18 -18 -39 -14 -193 3 -162 5 -177 30 -230 62 -133
175 -206 345 -223 30 -3 43 -1 44 8 1 15 1 166 0 190 -1 13 -10 17 -46 17 -57
0 -96 20 -132 67 -28 36 -28 38 -30 192 -1 86 -2 164 -2 174 -1 15 -12 17 -89
17 -75 0 -92 -3 -106 -19z"/>
<path d="M570 1156 c0 -58 3 -106 8 -107 4 -1 27 -3 51 -5 52 -5 108 -40 135
-85 16 -27 18 -54 19 -200 l0 -169 84 0 c74 0 87 3 106 23 22 21 23 28 21 182
-2 136 -5 168 -23 216 -55 145 -167 227 -334 244 l-67 7 0 -106z"/>
<path d="M1073 385 l1 -226 25 3 26 3 -1 220 0 220 -25 3 -26 3 0 -226z"/>
<path d="M144 378 l1 -213 70 -3 c125 -6 183 28 192 112 4 35 1 51 -16 75 -12
16 -31 33 -42 36 -19 6 -18 8 11 41 33 38 38 70 16 113 -20 38 -48 48 -147 50
l-85 2 0 -213z m154 157 c48 -11 45 -91 -4 -114 -14 -6 -40 -11 -59 -11 l-35
0 0 64 c0 78 6 81 98 61z m-7 -174 c29 -2 59 -35 63 -70 4 -40 -28 -81 -66
-82 -13 0 -38 -1 -56 -2 l-32 -2 0 77 c0 80 3 85 48 82 15 -1 34 -3 43 -3z"/>
<path d="M529 469 c-23 -9 -46 -46 -35 -57 2 -2 26 4 53 13 59 21 97 10 107
-30 9 -34 9 -34 -45 -41 -115 -14 -146 -45 -140 -135 2 -32 48 -69 86 -69 39
0 90 22 98 42 3 7 6 3 6 -9 1 -18 7 -23 26 -23 l25 0 0 120 c0 167 -19 201
-112 199 -24 0 -55 -5 -69 -10z m128 -190 c-6 -48 -28 -76 -69 -84 -37 -9 -68
17 -68 55 0 35 17 48 71 59 74 15 72 15 66 -30z"/>
<path d="M778 464 c-3 -3 -4 -13 -1 -22 3 -14 17 -17 79 -16 40 0 74 -1 74 -4
0 -2 -36 -55 -80 -118 -44 -63 -83 -121 -86 -129 -5 -13 12 -15 120 -15 119 0
126 1 126 20 0 11 -3 20 -7 21 -5 0 -41 1 -81 2 -40 1 -72 6 -72 12 0 6 36 61
80 123 44 62 80 117 80 123 0 10 -222 13 -232 3z"/>
</g>
</svg>
